<?xml version="1.0" standalone="no"?>
<!DOCTYPE svg PUBLIC "-//W3C//DTD SVG 20010904//EN"
 "http://www.w3.org/TR/2001/REC-SVG-20010904/DTD/svg10.dtd">
<svg version="1.0" xmlns="http://www.w3.org/2000/svg"
 width="450.000000pt" height="450.000000pt" viewBox="0 0 450.000000 450.000000"
 preserveAspectRatio="xMidYMid meet">
<metadata>
Created by potrace 1.11, written by Peter Selinger 2001-2013
</metadata>
<g transform="translate(0.000000,450.000000) scale(0.100000,-0.100000)"
fill="#000000" stroke="none">
<path d="M2149 4386 c-2 -2 -35 -7 -74 -11 -136 -13 -327 -59 -490 -119 -419
-154 -798 -455 -1050 -833 -141 -211 -255 -477 -309 -723 l-17 -75 -39 -1
c-58 -1 -103 -40 -123 -106 -14 -43 -17 -99 -17 -298 0 -135 1 -254 4 -265 8
-37 48 -96 77 -110 15 -8 44 -15 63 -15 33 0 35 -1 46 -52 87 -411 288 -777
589 -1079 198 -198 414 -346 658 -454 179 -78 394 -141 558 -161 28 -3 70 -9
95 -13 105 -16 479 -3 570 19 19 5 53 11 75 14 116 14 362 99 529 181 341 168
608 404 854 751 18 25 33 51 44 74 7 14 17 32 24 40 23 28 111 215 149 315 39
104 99 328 109 406 3 24 10 71 15 104 10 61 8 493 -2 531 -3 12 -8 39 -12 60
-12 79 -16 101 -35 180 -121 504 -443 967 -880 1266 -121 83 -199 126 -360
201 -88 41 -319 115 -410 132 -8 1 -44 7 -80 13 -36 7 -81 14 -100 18 -38 7
-455 16 -461 10z"/>
</g>
</svg>
